<svg width="24" height="24" viewBox="0 0 24 24" fill="none" xmlns="http://www.w3.org/2000/svg">
<path d="M11.6648 21.4631C11.3732 21.4631 11.0816 21.3951 10.8386 21.259C9.02079 20.2675 5.82269 19.2177 3.82023 18.9552L3.53833 18.9163C2.26492 18.7608 1.21509 17.5651 1.21509 16.2723V4.52972C1.21509 3.76178 1.51643 3.0619 2.07051 2.55642C2.62459 2.05095 3.34391 1.80793 4.10213 1.87597C6.24067 2.04123 9.46794 3.1105 11.2954 4.25754L11.5287 4.39363C11.5968 4.43251 11.7426 4.43251 11.8009 4.40335L11.9564 4.30614C13.7839 3.1591 17.0112 2.07039 19.1594 1.88569C19.1789 1.88569 19.2567 1.88569 19.2761 1.88569C19.9857 1.81765 20.7148 2.07039 21.2591 2.57586C21.8132 3.08134 22.1145 3.78123 22.1145 4.54916V16.282C22.1145 17.5846 21.0647 18.7705 19.7816 18.926L19.4608 18.9649C17.4583 19.2274 14.2505 20.2869 12.4716 21.2687C12.2383 21.4048 11.9564 21.4631 11.6648 21.4631ZM3.86883 3.32435C3.55777 3.32435 3.27587 3.43128 3.05229 3.63542C2.80928 3.85899 2.67319 4.17977 2.67319 4.52972V16.2723C2.67319 16.8458 3.16894 17.3999 3.72302 17.4776L4.01464 17.5165C6.20179 17.8082 9.55542 18.9066 11.4996 19.9661C11.587 20.005 11.7134 20.0147 11.762 19.9953C13.7062 18.9163 17.0792 17.8082 19.2761 17.5165L19.6066 17.4776C20.1607 17.4096 20.6564 16.8458 20.6564 16.2723V4.53944C20.6564 4.17977 20.5203 3.86871 20.2773 3.63542C20.0246 3.41184 19.7038 3.30491 19.3441 3.32435C19.3247 3.32435 19.2469 3.32435 19.2275 3.32435C17.3708 3.48961 14.3769 4.49083 12.7438 5.5115L12.5883 5.61843C12.0536 5.94894 11.2954 5.94893 10.7802 5.62815L10.5469 5.49206C8.8847 4.47139 5.89073 3.47988 3.98548 3.32435C3.9466 3.32435 3.90771 3.32435 3.86883 3.32435Z" fill="#292D32"/>
<path d="M11.6648 20.647C11.2663 20.647 10.9358 20.3165 10.9358 19.918V5.33696C10.9358 4.93841 11.2663 4.60791 11.6648 4.60791C12.0634 4.60791 12.3939 4.93841 12.3939 5.33696V19.918C12.3939 20.3262 12.0634 20.647 11.6648 20.647Z" fill="#292D32"/>
<path d="M7.53351 8.98203H5.34636C4.94781 8.98203 4.61731 8.65152 4.61731 8.25298C4.61731 7.85443 4.94781 7.52393 5.34636 7.52393H7.53351C7.93206 7.52393 8.26256 7.85443 8.26256 8.25298C8.26256 8.65152 7.93206 8.98203 7.53351 8.98203Z" fill="#292D32"/>
<path d="M8.26256 11.8985H5.34636C4.94781 11.8985 4.61731 11.568 4.61731 11.1695C4.61731 10.7709 4.94781 10.4404 5.34636 10.4404H8.26256C8.66111 10.4404 8.99161 10.7709 8.99161 11.1695C8.99161 11.568 8.66111 11.8985 8.26256 11.8985Z" fill="#292D32"/>
</svg>
